<?xml version="1.0" encoding="iso-8859-1"?>
<!-- Uploaded to: SVG Repo, www.svgrepo.com, Generator: SVG Repo Mixer Tools -->
<svg height="800px" width="800px" version="1.1" id="Capa_1" xmlns="http://www.w3.org/2000/svg" xmlns:xlink="http://www.w3.org/1999/xlink" 
	 viewBox="0 0 297.264 297.264" xml:space="preserve">
<g>
	<path style="fill:#DE3100;" d="M261.431,126.632h-79.686l-14,14h79.686h15.667v-12.275
		C263.098,127.225,262.425,126.632,261.431,126.632z"/>
	<path style="fill:#DE3100;" d="M145.116,140.632l14-14H35.431c-0.994,0-2.333,0.593-2.333,1.725v12.275h16.333H145.116z"/>
	<path style="fill:#FFCDAF;" d="M175.443,110.632l41.736-42.037c-6.521-2.367-13.545-3.963-20.853-3.963H99.842
		c-28.241,0-52.319,19-59.287,46H175.443z M148.431,71.132c4.419,0,8,3.581,8,8s-3.581,8-8,8c-4.419,0-8-3.581-8-8
		S144.012,71.132,148.431,71.132z M86.953,79.132c4.419,0,8,3.581,8,8s-3.581,8-8,8c-4.419,0-8-3.581-8-8
		S82.534,79.132,86.953,79.132z"/>
	<path style="fill:#FFCDAF;" d="M231.987,76.716l-33.915,33.916h57.238C251.645,96.632,243.237,84.818,231.987,76.716z"/>
	<path style="fill:#FFCDAF;" d="M70.209,215.54l22.907-22.908H44.29C50.632,202.489,59.614,210.433,70.209,215.54z"/>
	<path style="fill:#FFCDAF;" d="M115.745,192.632L87.38,220.87c3.484,0.584,7.059,0.762,10.701,0.762h100.016
		c22.343,0,42.168-11.287,53.511-29H115.745z"/>
	<path style="fill:#FF8200;" d="M271.431,156.632H248.79l-57.144,20h79.784c5.514,0,10-4.486,10-10
		C281.431,161.118,276.945,156.632,271.431,156.632z"/>
	<path style="fill:#FF8200;" d="M26.431,176.632h77.614l-56-20H26.431c-5.514,0-10,4.486-10,10
		C16.431,172.146,20.917,176.632,26.431,176.632z"/>
	<path d="M279.098,141.897v-13.54c0-5.685-2.577-10.739-6.815-13.984c-3.046-20.212-13.707-37.629-28.953-49.408l51.132-51.091
		c3.124-3.125,3.145-8.189,0.021-11.314c-3.125-3.123-8.179-3.123-11.304,0l-53.79,53.657c-10.048-4.774-21.258-7.584-33.062-7.584
		H99.842c-38.767,0-71.461,28.54-76.722,66.543c-3.589,3.242-6.022,8.02-6.022,13.182v13.883c-10,3.67-16.833,13.219-16.833,24.393
		c0,14.19,11.511,25.754,25.647,25.989c7.018,14.683,18.423,26.775,32.417,34.759l-55.99,56.011
		c-3.124,3.125-3.114,8.189,0.01,11.314c1.562,1.562,3.615,2.343,5.663,2.343c2.048,0,4.097-0.781,5.66-2.343l60.468-60.595
		c7.575,2.361,15.616,3.521,23.943,3.521h100.016c31.453,0,58.924-18.013,71.784-45h1.55c14.337,0,25.833-11.663,25.833-26
		C297.264,155.086,290.098,145.279,279.098,141.897z M271.431,176.632h-79.784l57.144-20h22.641c5.514,0,10,4.486,10,10
		C281.431,172.146,276.945,176.632,271.431,176.632z M198.097,221.632H98.081c-3.643,0-7.217-0.178-10.701-0.762l28.365-28.238
		h135.862C240.265,210.345,220.44,221.632,198.097,221.632z M16.431,166.632c0-5.514,4.486-10,10-10h21.614l56,20H26.431
		C20.917,176.632,16.431,172.146,16.431,166.632z M99.842,64.632h96.484c7.308,0,14.331,1.596,20.853,3.963l-41.736,42.037H40.555
		C47.523,83.632,71.601,64.632,99.842,64.632z M33.098,128.357c0-1.132,1.339-1.725,2.333-1.725h123.685l-14,14H49.431H33.098
		V128.357z M147.458,175.147l-10.483-3.744l14.771-14.771h48.611L147.458,175.147z M95.616,156.632h33.5l-8.815,8.815
		L95.616,156.632z M247.431,140.632h-79.686l14-14h79.686c0.994,0,1.667,0.593,1.667,1.725v12.275H247.431z M198.072,110.632
		l33.915-33.916c11.25,8.103,19.658,19.916,23.323,33.916H198.072z M93.116,192.632L70.209,215.54
		c-10.596-5.107-19.577-13.051-25.919-22.908H93.116z"/>
	<polygon style="fill:#FFBE00;" points="151.745,156.632 136.975,171.402 147.458,175.147 200.357,156.632 	"/>
	<polygon style="fill:#FFBE00;" points="120.301,165.447 129.116,156.632 95.616,156.632 	"/>
	<circle cx="86.953" cy="87.132" r="8"/>
	<circle cx="148.431" cy="79.132" r="8"/>
</g>
</svg>